<?xml version="1.0" encoding="UTF-8" standalone="no"?>
<svg
   width="43.668"
   height="32.229"
   viewBox="0 0 43.668 32.229"
   version="1.1"
   id="svg1"
   sodipodi:docname="ico_Movistar_white.svg"
   inkscape:version="1.4.1 (93de688d07, 2025-03-30)"
   xmlns:inkscape="http://www.inkscape.org/namespaces/inkscape"
   xmlns:sodipodi="http://sodipodi.sourceforge.net/DTD/sodipodi-0.dtd"
   xmlns="http://www.w3.org/2000/svg"
   xmlns:svg="http://www.w3.org/2000/svg">
  <defs
     id="defs1" />
  <sodipodi:namedview
     id="namedview1"
     pagecolor="#ffffff"
     bordercolor="#000000"
     borderopacity="0.25"
     inkscape:showpageshadow="2"
     inkscape:pageopacity="0.0"
     inkscape:pagecheckerboard="0"
     inkscape:deskcolor="#d1d1d1"
     inkscape:zoom="15.855286"
     inkscape:cx="21.853911"
     inkscape:cy="16.1145"
     inkscape:window-width="1366"
     inkscape:window-height="720"
     inkscape:window-x="0"
     inkscape:window-y="20"
     inkscape:window-maximized="1"
     inkscape:current-layer="svg1" />
  <path
     id="icono_Movistar"
     d="M708.056,486.026c-2.024.032-5.759,1.03-7.464,8a23.741,23.741,0,0,0-.395,9.965,38.189,38.189,0,0,0,2.327,8.124,7.238,7.238,0,0,0,.9,1.529,2.429,2.429,0,0,0,2.8.7c.634-.312,1.362-1.066,1.1-2.786a22.939,22.939,0,0,0-.7-2.723,30,30,0,0,1-1.554-6.359c-.1-2.384.842-2.7,1.466-2.833,1.05-.231,1.93.922,2.766,2.367,1,1.725,2.71,4.78,4.1,7.113a7.982,7.982,0,0,0,7.317,4.208c3.8-.157,6.61-1.609,8.055-6.179a75.551,75.551,0,0,1,3-8.593c1.363-3.01,3.183-4.62,4.715-4.128,1.422.456,1.777,1.846,1.794,3.89a45.952,45.952,0,0,1-.356,5.264,15.384,15.384,0,0,0-.123,2.193,2.411,2.411,0,0,0,1.905,2.519,2.912,2.912,0,0,0,2.97-2.272,12.475,12.475,0,0,0,.41-1.926,34.689,34.689,0,0,0,.332-7.874,28.177,28.177,0,0,0-2.093-9.44c-1.142-2.637-2.975-4.328-5.327-4.477-2.6-.165-5.59,1.562-7.157,4.912-1.445,3.088-2.6,6.259-3.3,7.878a4.084,4.084,0,0,1-3.362,2.822c-1.965.207-3.657-1.219-4.9-3.251a46.71,46.71,0,0,0-4.369-6.281C711.845,487.318,710.616,485.986,708.056,486.026Z"
     transform="translate(-699.846 -482.293)"
     fill="#019df4"
     style="fill:#ffffff;fill-opacity:1" />
</svg>
